<svg xmlns="http://www.w3.org/2000/svg" viewBox="0 0 969.98 356.15"><defs><style>.cls-1{fill:#fff;}</style></defs><g id="Capa_2" data-name="Capa 2"><g id="Capa_1-2" data-name="Capa 1"><path class="cls-1" d="M.26,356.15V321.83H33.31v4.61H6V336H22.7v4.54H6v10.91H33.57v4.71Z"/><path class="cls-1" d="M60.52,326.51v29.64H54.8V326.51H39.12v-4.68H76.26v4.68Z"/><path class="cls-1" d="M85.91,356.15V321.83H119v4.61H91.65V336h16.69v4.54H91.65v10.91h27.57v4.71Z"/><path class="cls-1" d="M132.85,356.15V321.83h27.66c2.58,0,4.43.53,5.57,1.58s1.7,2.74,1.7,5.08v7.66c0,2.32-.56,4-1.7,5.05s-3,1.57-5.57,1.57h-5l15.68,13.38h-8.5l-14-13.38H138.6v13.38Zm25.42-29.87H138.6v12h19.67a4.19,4.19,0,0,0,2.92-.77,3.81,3.81,0,0,0,.78-2.73v-5a3.8,3.8,0,0,0-.79-2.74A4.1,4.1,0,0,0,158.27,326.28Z"/><path class="cls-1" d="M183.53,356.15V321.83h3.6l25.68,23a22.16,22.16,0,0,1,1.87,1.88c.66.74,1.34,1.55,2,2.43q-.26-1.65-.39-3.45c-.09-1.21-.13-2.87-.13-5V321.83h5.26v34.32h-3.21l-26.37-23.86-.58-.52a15,15,0,0,1-2.89-3.35c.13,1,.23,2.15.29,3.33s.1,2.57.1,4.17v20.23Z"/><path class="cls-1" d="M232.55,356.15l18.74-34.32h6.13l19.06,34.32h-6.3l-4.38-8.44H242.59l-4.39,8.44ZM245,343.33h18.47l-9.25-17.57Z"/><path class="cls-1" d="M287.58,356.15V321.83h5.75v29.55h26v4.77Z"/><path class="cls-1" d="M360.27,326.51H336v9.58h21.62q4.58,0,6.27,1.68c1.12,1.13,1.69,3.26,1.69,6.4V348c0,3.16-.56,5.31-1.66,6.43s-3.2,1.69-6.3,1.69h-20q-4.68,0-6.36-1.71T329.53,348v-.94l5.32-1.23v5.52H360.4V341.05H338.85q-4.68,0-6.33-1.7t-1.66-6.41v-3q0-4.71,1.66-6.41t6.33-1.71h18.27c3.06,0,5.16.56,6.32,1.67s1.74,3.07,1.74,5.86v.72l-4.91,1.39Z"/><path class="cls-1" d="M407.77,356.15V321.83h27.66c2.58,0,4.43.53,5.57,1.58s1.7,2.74,1.7,5.08v7.66c0,2.32-.56,4-1.7,5.05s-3,1.57-5.57,1.57h-5l15.68,13.38h-8.51l-14-13.38H413.52v13.38Zm25.42-29.87H413.52v12h19.67a4.19,4.19,0,0,0,2.92-.77,3.81,3.81,0,0,0,.78-2.73v-5a3.8,3.8,0,0,0-.79-2.74A4.1,4.1,0,0,0,433.19,326.28Z"/><path class="cls-1" d="M453,356.15l18.73-34.32h6.13l19.06,34.32h-6.3l-4.38-8.44H463l-4.39,8.44Zm12.43-12.82H483.9l-9.25-17.57Z"/><path class="cls-1" d="M537.08,326.51h-23.8v24.87h23.8v-8.61l5.75,1.2V348c0,3.16-.55,5.31-1.66,6.43s-3.21,1.69-6.33,1.69H515.62q-4.68,0-6.36-1.71T507.57,348V330q0-4.71,1.69-6.41t6.36-1.71h19.22c3.12,0,5.23.57,6.33,1.69s1.66,3.27,1.66,6.43v3.25l-5.75,1.07Z"/><path class="cls-1" d="M557.89,356.15V321.83h33.05v4.61h-27.3V336h16.69v4.54H563.64v10.91H591.2v4.71Z"/><path class="cls-1" d="M634.32,328c.08.67.15,1.37.19,2.11s.07,1.71.07,2.92v23.15h-4.87V321.83h4.67l16.69,22.34,15.55-22.34h5.26v34.32h-5.26V333c0-.3,0-1.07.11-2.29s.13-2.13.15-2.74c-.43.89-.82,1.63-1.15,2.24s-.64,1.09-.9,1.46l-13.11,19.09h-1.46l-13.64-18.57-.16-.23A14.47,14.47,0,0,1,634.32,328Z"/><path class="cls-1" d="M689.73,356.15V321.83h33.06v4.61H695.48V336h16.69v4.54H695.48v10.91H723v4.71Zm12.11-37.95,6.79-11.3h5.78l-9.12,11.3Z"/><path class="cls-1" d="M731.78,356.15l16.62-17.7-16.88-16.62h8.24l12,13,11.29-13h7.15l-15.1,16.1,18.41,18.22h-8.25l-13.63-14.64L739,356.15Z"/><path class="cls-1" d="M784.08,356.15V321.83h5.75v34.32Z"/><path class="cls-1" d="M836.67,326.51H812.88v24.87h23.79v-8.61l5.75,1.2V348c0,3.16-.55,5.31-1.66,6.43s-3.21,1.69-6.33,1.69H815.21q-4.66,0-6.36-1.71T807.16,348V330q0-4.71,1.69-6.41t6.36-1.71h19.22c3.12,0,5.23.57,6.33,1.69s1.66,3.27,1.66,6.43v3.25l-5.75,1.07Z"/><path class="cls-1" d="M857,330q0-4.68,1.67-6.4c1.12-1.14,3.24-1.72,6.38-1.72h23.73c3.1,0,5.2.57,6.32,1.71s1.67,3.27,1.67,6.41V348c0,3.16-.56,5.31-1.67,6.43s-3.22,1.69-6.32,1.69H865.08c-3.14,0-5.26-.57-6.38-1.72S857,351.15,857,348Zm5.71,21.43h28.41V326.51H862.74Z"/><path class="cls-1" d="M290,1.7H0V60.25H290ZM215.76,168V109.4H.67V168ZM517,179.51A89.49,89.49,0,0,0,507.58,1H317V59.59H507.58a30.93,30.93,0,1,1,0,61.85H367.26V180h43.23l151,97,35.64,1.26-.27-46.73ZM804.61,2.37l-51.52,81.5L701.6,2.37H608.08V60.92h61.25l83.76,132.57L836.87,60.92h2.67V277.67h58.55V2.37ZM.67,276.33h290V217.77H.67Z"/><path class="cls-1" d="M945.41,0a24.58,24.58,0,0,1,9.51,1.86,24,24,0,0,1,8,5.42A24.38,24.38,0,0,1,970,24.5a24.34,24.34,0,0,1-1.83,9.43,23.06,23.06,0,0,1-5.32,7.79,25.77,25.77,0,0,1-8.12,5.41,24,24,0,0,1-9.3,1.88,23.7,23.7,0,0,1-9.32-1.88,24.48,24.48,0,0,1-8-5.47,24.7,24.7,0,0,1-5.32-7.93,24.17,24.17,0,0,1,.09-18.62A25.66,25.66,0,0,1,928.39,7a22.68,22.68,0,0,1,7.7-5.19A24.61,24.61,0,0,1,945.41,0Zm21.38,24.74a22.17,22.17,0,0,0-1.55-8.34,19.94,19.94,0,0,0-4.51-6.84,21,21,0,0,0-15.22-6.3,21.47,21.47,0,0,0-8.16,1.56,19.64,19.64,0,0,0-6.69,4.48,22.48,22.48,0,0,0-4.81,7.1,20.64,20.64,0,0,0-1.68,8.14,20.32,20.32,0,0,0,1.61,8,21.72,21.72,0,0,0,4.65,6.89,21.14,21.14,0,0,0,6.87,4.7,20.46,20.46,0,0,0,8,1.64,21.4,21.4,0,0,0,8.21-1.59,22.87,22.87,0,0,0,7.08-4.65,20.21,20.21,0,0,0,4.59-6.72A20.51,20.51,0,0,0,966.79,24.74ZM946.08,10.13q5.79,0,8.7,1.91a6.38,6.38,0,0,1,2.91,5.7A7.4,7.4,0,0,1,956,22.66a7.92,7.92,0,0,1-4.69,2.56l6.22,12.69h-5.89L946,26.05h-5.17V37.91H935.6V10.13Zm-.94,3.39h-4.3v9.21h4.44q3.76,0,5.39-1.05a3.71,3.71,0,0,0,1.64-3.37,4.08,4.08,0,0,0-1.7-3.66Q948.9,13.53,945.14,13.52Z"/></g></g></svg>